<?xml version="1.0" encoding="UTF-8"?>
<!-- Generator: Adobe Illustrator 16.0.4, SVG Export Plug-In . SVG Version: 6.00 Build 0)  -->
<svg xmlns="http://www.w3.org/2000/svg" xmlns:xlink="http://www.w3.org/1999/xlink" id="Layer_1" x="0px" y="0px" width="512px" height="512px" viewBox="0 0 512 512" xml:space="preserve">
<path fill="#FFFFFF" d="M19.197,239.94c-0.543,1.324-1.149,2.611-1.554,3.972s-0.598,2.749-0.864,4.128  c-0.248,1.297-0.57,2.575-0.699,3.881c-0.129,1.36-0.064,2.721-0.064,4.083c0,1.36-0.064,2.722,0.064,4.082  c0.129,1.306,0.451,2.584,0.699,3.88c0.267,1.38,0.46,2.768,0.864,4.129c0.404,1.36,1.011,2.647,1.554,3.972  c0.496,1.204,0.91,2.437,1.526,3.613c0.781,1.489,1.793,2.869,2.768,4.275c0.57,0.827,0.983,1.72,1.627,2.52  c0.074,0.092,0.166,0.156,0.239,0.248c0.883,1.076,1.968,2.014,2.961,3.016c1.048,1.058,2.041,2.188,3.182,3.117  c0.092,0.064,0.146,0.156,0.238,0.229l211.84,169.472c18.264,14.619,44.927,11.64,59.542-6.61  c14.618-18.279,11.659-44.934-6.616-59.553L178.977,298.37h274.656c23.4,0,42.368-18.968,42.368-42.367  c0-23.401-18.968-42.369-42.368-42.369H178.977l117.527-94.021c18.275-14.619,21.234-41.274,6.617-59.553  c-8.367-10.454-20.679-15.897-33.109-15.897c-9.282,0-18.628,3.035-26.434,9.287L32.133,222.599  c-0.036,0.027-0.083,0.064-0.119,0.101l-0.276,0.221c-2.408,1.932-4.523,4.083-6.39,6.381c-0.064,0.093-0.156,0.147-0.23,0.23  c-0.644,0.8-1.057,1.691-1.627,2.52c-0.975,1.406-1.986,2.785-2.768,4.275C20.107,237.503,19.693,238.735,19.197,239.94z"></path>
</svg>
