<?xml version="1.0" encoding="UTF-8"?>
<!-- Generator: Adobe Illustrator 16.0.4, SVG Export Plug-In . SVG Version: 6.00 Build 0)  -->
<svg xmlns="http://www.w3.org/2000/svg" xmlns:xlink="http://www.w3.org/1999/xlink" id="Layer_1" x="0px" y="0px" width="512px" height="512px" viewBox="0 0 512 512" xml:space="preserve">
<path fill="#FFFFFF" d="M492.803,272.061c0.543-1.324,1.149-2.611,1.554-3.972s0.598-2.749,0.864-4.128  c0.248-1.297,0.57-2.575,0.699-3.881c0.129-1.36,0.064-2.721,0.064-4.083c0-1.36,0.064-2.722-0.064-4.082  c-0.129-1.306-0.451-2.584-0.699-3.88c-0.267-1.379-0.46-2.767-0.864-4.128c-0.404-1.36-1.011-2.647-1.554-3.972  c-0.496-1.205-0.91-2.437-1.526-3.613c-0.781-1.49-1.793-2.869-2.768-4.275c-0.57-0.828-0.983-1.72-1.627-2.52  c-0.074-0.092-0.166-0.156-0.239-0.248c-0.883-1.076-1.968-2.014-2.961-3.016c-1.048-1.058-2.041-2.188-3.182-3.117  c-0.092-0.064-0.146-0.156-0.238-0.229L268.422,53.445c-18.265-14.619-44.928-11.64-59.543,6.61  c-14.618,18.279-11.658,44.934,6.616,59.553l117.527,94.022H58.367c-23.4,0-42.368,18.968-42.368,42.368  c0,23.401,18.968,42.369,42.368,42.369h274.655l-117.527,94.021c-18.274,14.619-21.234,41.274-6.616,59.553  c8.367,10.454,20.679,15.897,33.109,15.897c9.282,0,18.628-3.035,26.434-9.287l211.444-169.149c0.036-0.027,0.083-0.064,0.119-0.101  l0.276-0.221c2.408-1.932,4.523-4.083,6.39-6.381c0.064-0.093,0.156-0.147,0.23-0.23c0.644-0.8,1.057-1.691,1.627-2.52  c0.975-1.406,1.986-2.785,2.768-4.275C491.893,274.497,492.307,273.266,492.803,272.061z"></path>
</svg>
