<?xml version="1.0" encoding="utf-8"?>
<!-- Generator: Adobe Illustrator 21.0.0, SVG Export Plug-In . SVG Version: 6.00 Build 0)  -->
<svg version="1.1" id="Layer_1" xmlns="http://www.w3.org/2000/svg" xmlns:xlink="http://www.w3.org/1999/xlink" x="0px" y="0px"
	 viewBox="0 0 420 221" style="enable-background:new 0 0 420 221;" xml:space="preserve">
<style type="text/css">
	.st0{fill:#FFFFFF;}
	.st1{font-family:'ArialMT';}
	.st2{font-size:90px;}
	.st3{font-size:60px;}
	.st4{fill:#FFFFFF;stroke:#FFFFFF;stroke-width:6;stroke-miterlimit:10;}
	.st5{fill:#FFFFFF;stroke:#FFFFFF;stroke-width:9;stroke-miterlimit:10;}
	.st6{fill:#FFFFFF;stroke:#FFFFFF;stroke-width:2;stroke-miterlimit:10;}
</style>
<text transform="matrix(1 0 0 1 81 138)"><tspan x="0" y="0" class="st0 st1 st2">R</tspan><tspan x="65" y="0" class="st0 st1 st3">ANCH</tspan></text>
<text transform="matrix(1 0 0 1 104 201)" class="st0 st1 st2">J</text>
<line class="st4" x1="34" y1="136" x2="382" y2="136"/>
<line class="st5" x1="92.5" y1="47" x2="92.5" y2="135.5"/>
<line class="st5" x1="62" y1="42.5" x2="125" y2="42.5"/>
<polygon class="st4" points="399,136 367,122 367,150 "/>
<line class="st6" x1="25" y1="119" x2="38" y2="135"/>
<line class="st6" x1="78" y1="135" x2="71" y2="127"/>
<line class="st6" x1="25" y1="119" x2="71" y2="127"/>
<line class="st6" x1="38" y1="135" x2="42" y2="138"/>
<line class="st6" x1="38.2" y1="137.1" x2="24.8" y2="152.9"/>
<line class="st6" x1="24.8" y1="152.6" x2="71.2" y2="147.4"/>
<line class="st6" x1="70.3" y1="147.3" x2="76.7" y2="138.7"/>
</svg>
