<svg xmlns="http://www.w3.org/2000/svg" width="18" height="18" viewBox="0 0 18 18">
  <path fill="#0F748C" fill-rule="evenodd" d="M349.614383,30 L340.993462,30 C340.444627,30 340,29.5550968 340,29.006476 L340,12.9934541 C340,12.4446936 340.444697,12 340.993462,12 L357.006608,12 C357.555233,12 358,12.4446936 358,12.9934541 L358,29.006476 C358,29.5551667 357.555163,30 357.006608,30 L352.419739,30 L352.419739,23.029408 L354.759445,23.029408 L355.109783,20.3128446 L352.419739,20.3128446 L352.419739,18.5784905 C352.419739,17.7919827 352.638142,17.2560036 353.765984,17.2560036 L355.204492,17.255375 L355.204492,14.825659 C354.955707,14.7925531 354.101794,14.7185889 353.108332,14.7185889 C351.034313,14.7185889 349.614383,15.9845723 349.614383,18.3094533 L349.614383,20.3128446 L347.268671,20.3128446 L347.268671,23.029408 L349.614383,23.029408 L349.614383,30 L349.614383,30 Z" transform="translate(-340 -12)"/>
</svg>
