<svg xmlns="http://www.w3.org/2000/svg" width="18" height="15" viewBox="0 0 18 15">
  <path fill="#0F748C" fill-rule="evenodd" d="M396,15.7757313 C395.338616,16.0769231 394.626519,16.2806067 393.879556,16.3716143 C394.642367,15.9035753 395.227681,15.1614301 395.503434,14.2773564 C394.789223,14.7107259 394,15.0260022 393.156894,15.1950163 C392.484945,14.4593716 391.524564,14 390.461701,14 C388.423666,14 386.770206,15.695558 386.770206,17.7865655 C386.770206,18.0834236 386.801902,18.3716143 386.865293,18.6489707 C383.796091,18.4907909 381.075541,16.9848321 379.253038,14.6912243 C378.935024,15.2524377 378.753302,15.9035753 378.753302,16.5969664 C378.753302,17.9100758 379.405177,19.0693391 380.396197,19.7486457 C379.791865,19.7302275 379.221342,19.5579632 378.722662,19.276273 L378.722662,19.3228602 C378.722662,21.1581798 379.995774,22.6890574 381.686212,23.035753 C381.376651,23.1245937 381.050185,23.1690141 380.713154,23.1690141 C380.475436,23.1690141 380.243001,23.1462622 380.017961,23.1018418 C380.488114,24.6056338 381.85103,25.7009751 383.467512,25.7302275 C382.203909,26.7464789 380.610671,27.3521127 378.881141,27.3521127 C378.583201,27.3521127 378.288431,27.3347779 378,27.3001083 C379.634443,28.3726977 381.576334,29 383.660856,29 C390.454305,29 394.167987,23.2307692 394.167987,18.2264355 C394.167987,18.0617551 394.164818,17.8970748 394.158479,17.7356446 C394.880085,17.2015168 395.506603,16.5352113 396,15.7757313" transform="translate(-378 -14)"/>
</svg>
