<svg xmlns="http://www.w3.org/2000/svg" width="18" height="13" viewBox="0 0 18 13">
  <path fill="#0F748C" fill-rule="evenodd" d="M422.1415,23.8973208 L422.140938,18.7041365 L427.004312,21.3096814 L422.1415,23.8973208 Z M432.82,17.8042387 C432.82,17.8042387 432.643937,16.5306349 432.1045,15.9697872 C431.419938,15.2333496 430.652688,15.229884 430.301125,15.1871418 C427.78225,15 424.003938,15 424.003938,15 L423.996062,15 C423.996062,15 420.21775,15 417.698875,15.1871418 C417.34675,15.229884 416.580062,15.2333496 415.894938,15.9697872 C415.3555,16.5306349 415.18,17.8042387 415.18,17.8042387 C415.18,17.8042387 415,19.3002177 415,20.7956191 L415,22.1980273 C415,23.6940063 415.18,25.1894077 415.18,25.1894077 C415.18,25.1894077 415.3555,26.4630115 415.894938,27.0238592 C416.580062,27.7602968 417.4795,27.7371929 417.88,27.8140134 C419.32,27.9561025 424,28 424,28 C424,28 427.78225,27.994224 430.301125,27.8070822 C430.652688,27.7637624 431.419938,27.7602968 432.1045,27.0238592 C432.643937,26.4630115 432.82,25.1894077 432.82,25.1894077 C432.82,25.1894077 433,23.6940063 433,22.1980273 L433,20.7956191 C433,19.3002177 432.82,17.8042387 432.82,17.8042387 L432.82,17.8042387 Z" transform="translate(-415 -15)"/>
</svg>
